G04 #@! TF.FileFunction,Legend,Bot*
%FSLAX46Y46*%
G04 Gerber Fmt 4.6, Leading zero omitted, Abs format (unit mm)*
G04 Created by KiCad (PCBNEW 4.0.7) date 06/08/18 01:01:08*
%MOMM*%
%LPD*%
G01*
G04 APERTURE LIST*
%ADD10C,0.100000*%
%ADD11C,0.120000*%
%ADD12C,0.150000*%
G04 APERTURE END LIST*
D10*
D11*
X156320600Y-112099800D02*
X156320600Y-113299800D01*
X158080600Y-113299800D02*
X158080600Y-112099800D01*
X158080600Y-85756040D02*
X158080600Y-84556040D01*
X156320600Y-84556040D02*
X156320600Y-85756040D01*
D12*
X159391101Y-92506587D02*
X160105387Y-92506587D01*
X160248244Y-92458967D01*
X160343482Y-92363729D01*
X160391101Y-92220872D01*
X160391101Y-92125634D01*
X160391101Y-92982777D02*
X159391101Y-92982777D01*
X159391101Y-93363730D01*
X159438720Y-93458968D01*
X159486339Y-93506587D01*
X159581577Y-93554206D01*
X159724434Y-93554206D01*
X159819672Y-93506587D01*
X159867291Y-93458968D01*
X159914910Y-93363730D01*
X159914910Y-92982777D01*
X160391101Y-94506587D02*
X160391101Y-93935158D01*
X160391101Y-94220872D02*
X159391101Y-94220872D01*
X159533958Y-94125634D01*
X159629196Y-94030396D01*
X159676815Y-93935158D01*
X159352981Y-111461705D02*
X159352981Y-110890276D01*
X159352981Y-111175990D02*
X158352981Y-111175990D01*
X158495838Y-111080752D01*
X158591076Y-110985514D01*
X158638695Y-110890276D01*
X158352981Y-112080752D02*
X158352981Y-112175991D01*
X158400600Y-112271229D01*
X158448219Y-112318848D01*
X158543457Y-112366467D01*
X158733933Y-112414086D01*
X158972029Y-112414086D01*
X159162505Y-112366467D01*
X159257743Y-112318848D01*
X159305362Y-112271229D01*
X159352981Y-112175991D01*
X159352981Y-112080752D01*
X159305362Y-111985514D01*
X159257743Y-111937895D01*
X159162505Y-111890276D01*
X158972029Y-111842657D01*
X158733933Y-111842657D01*
X158543457Y-111890276D01*
X158448219Y-111937895D01*
X158400600Y-111985514D01*
X158352981Y-112080752D01*
X158352981Y-113033133D02*
X158352981Y-113128372D01*
X158400600Y-113223610D01*
X158448219Y-113271229D01*
X158543457Y-113318848D01*
X158733933Y-113366467D01*
X158972029Y-113366467D01*
X159162505Y-113318848D01*
X159257743Y-113271229D01*
X159305362Y-113223610D01*
X159352981Y-113128372D01*
X159352981Y-113033133D01*
X159305362Y-112937895D01*
X159257743Y-112890276D01*
X159162505Y-112842657D01*
X158972029Y-112795038D01*
X158733933Y-112795038D01*
X158543457Y-112842657D01*
X158448219Y-112890276D01*
X158400600Y-112937895D01*
X158352981Y-113033133D01*
X159352981Y-113747419D02*
X159352981Y-113985514D01*
X159162505Y-113985514D01*
X159114886Y-113890276D01*
X159019648Y-113795038D01*
X158876790Y-113747419D01*
X158638695Y-113747419D01*
X158495838Y-113795038D01*
X158400600Y-113890276D01*
X158352981Y-114033133D01*
X158352981Y-114223610D01*
X158400600Y-114366467D01*
X158495838Y-114461705D01*
X158638695Y-114509324D01*
X158876790Y-114509324D01*
X159019648Y-114461705D01*
X159114886Y-114366467D01*
X159162505Y-114271229D01*
X159352981Y-114271229D01*
X159352981Y-114509324D01*
X155286314Y-83822707D02*
X155952981Y-83822707D01*
X154905362Y-83584611D02*
X155619648Y-83346516D01*
X155619648Y-83965564D01*
X154952981Y-84251278D02*
X154952981Y-84917945D01*
X155952981Y-84489373D01*
X154952981Y-85489373D02*
X154952981Y-85584612D01*
X155000600Y-85679850D01*
X155048219Y-85727469D01*
X155143457Y-85775088D01*
X155333933Y-85822707D01*
X155572029Y-85822707D01*
X155762505Y-85775088D01*
X155857743Y-85727469D01*
X155905362Y-85679850D01*
X155952981Y-85584612D01*
X155952981Y-85489373D01*
X155905362Y-85394135D01*
X155857743Y-85346516D01*
X155762505Y-85298897D01*
X155572029Y-85251278D01*
X155333933Y-85251278D01*
X155143457Y-85298897D01*
X155048219Y-85346516D01*
X155000600Y-85394135D01*
X154952981Y-85489373D01*
X155952981Y-86203659D02*
X155952981Y-86441754D01*
X155762505Y-86441754D01*
X155714886Y-86346516D01*
X155619648Y-86251278D01*
X155476790Y-86203659D01*
X155238695Y-86203659D01*
X155095838Y-86251278D01*
X155000600Y-86346516D01*
X154952981Y-86489373D01*
X154952981Y-86679850D01*
X155000600Y-86822707D01*
X155095838Y-86917945D01*
X155238695Y-86965564D01*
X155476790Y-86965564D01*
X155619648Y-86917945D01*
X155714886Y-86822707D01*
X155762505Y-86727469D01*
X155952981Y-86727469D01*
X155952981Y-86965564D01*
M02*
