M48
;DRILL file {KiCad 4.0.7} date 06/08/18 01:01:10
;FORMAT={-:-/ absolute / inch / decimal}
FMAT,2
INCH,TZ
T1C0.016
T2C0.024
T3C0.033
T4C0.051
T5C0.059
T6C0.067
T7C0.079
T8C0.126
%
G90
G05
M72
T1
X5.629Y-4.5012
X5.66Y-4.77
X6.27Y-3.44
T3
X5.2613Y-4.4536
X5.2613Y-4.6504
T4
X5.2262Y-3.1071
X5.5215Y-3.1071
X5.7774Y-3.1071
X5.825Y-3.515
X5.825Y-3.665
X5.825Y-3.815
X5.825Y-3.965
X5.825Y-4.115
X5.825Y-4.265
X5.825Y-4.415
X5.825Y-4.565
X5.825Y-4.715
X5.825Y-4.865
X5.825Y-5.015
X6.025Y-3.5896
X6.025Y-3.7396
X6.025Y-3.8896
X6.025Y-4.0396
X6.025Y-4.1896
X6.025Y-4.3396
X6.025Y-4.4896
X6.025Y-4.6396
X6.025Y-4.7896
X6.025Y-4.9396
X6.0726Y-3.1071
X6.3285Y-3.1071
X6.6238Y-3.1071
T5
X5.2262Y-2.8217
X5.7774Y-2.8217
X6.3285Y-2.8217
T8
X5.3487Y-3.4748
X5.3487Y-5.0552
X6.4973Y-3.4748
X6.4973Y-5.0552
T2
X5.1412Y-4.4142G85X5.1688Y-4.4142
G05
X5.1688Y-4.6898G85X5.1412Y-4.6898
G05
T6
X5.1317Y-3.0185G85X5.1317Y-2.9004
G05
X6.7183Y-3.0185G85X6.7183Y-2.9004
G05
T7
X6.0195Y-3.3831G85X5.8305Y-3.3831
G05
X6.0195Y-5.1469G85X5.8305Y-5.1469
G05
T0
M30
